<?xml version="1.0" encoding="UTF-8" standalone="no"?>
<svg
   id="Layer_2"
   data-name="Layer 2"
   width="1434.02"
   height="1434.5699"
   viewBox="0 0 1434.02 1434.5699"
   version="1.1"
   xmlns="http://www.w3.org/2000/svg"
   xmlns:svg="http://www.w3.org/2000/svg">
  <defs
     id="defs1">
    <style
       id="style1">
      .cls-1 {
        fill: #ffbc0d;
      }

      .cls-2 {
        fill: #db0007;
      }
    </style>
  </defs>
  <g
     id="Layer_1-2"
     data-name="Layer 1">
    <g
       id="g13">
      <path
         class="cls-2"
         d="m 124.22,1434.57 c 0,0 -124.22,0 -124.22,-124.27 V 124.27 C 0,124.27 0,0 124.22,0 H 1309.8 c 0,0 124.22,0 124.22,124.27 V 1310.3 c 0,0 0,124.27 -124.22,124.27 z"
         id="path12" />
      <path
         class="cls-1"
         d="m 925.34,294.81 c -84.13,0 -159.16,112.14 -208.26,287.47 C 668.01,406.95 592.95,294.81 508.82,294.81 c -147.86,0 -267.77,373.1 -267.77,833.32 h 119.02 c 0,-427.34 66.62,-773.79 148.75,-773.79 82.13,0 148.76,319.8 148.76,714.27 h 119 c 0,-394.47 66.6,-714.27 148.75,-714.27 82.15,0 148.77,346.44 148.77,773.79 h 118.98 c 0,-460.22 -119.87,-833.32 -267.74,-833.32 z"
         id="path13" />
    </g>
  </g>
</svg>
